<svg width="58" height="58" viewBox="0 0 58 58" fill="none" xmlns="http://www.w3.org/2000/svg">
<path d="M18.125 54.375C20.127 54.375 21.75 52.752 21.75 50.75C21.75 48.748 20.127 47.125 18.125 47.125C16.123 47.125 14.5 48.748 14.5 50.75C14.5 52.752 16.123 54.375 18.125 54.375Z" fill="#F8F8F8"/>
<path d="M43.5 54.375C45.502 54.375 47.125 52.752 47.125 50.75C47.125 48.748 45.502 47.125 43.5 47.125C41.498 47.125 39.875 48.748 39.875 50.75C39.875 52.752 41.498 54.375 43.5 54.375Z" fill="#F8F8F8"/>
<path d="M50.75 12.6875H10.5487L9.0625 5.075C8.97776 4.65944 8.74998 4.28675 8.41881 4.02181C8.08763 3.75687 7.67403 3.61645 7.25 3.625H0V7.25H5.76375L12.6875 42.05C12.7722 42.4656 13 42.8383 13.3312 43.1032C13.6624 43.3681 14.076 43.5086 14.5 43.5H47.125V39.875H15.9862L14.5 32.625H47.125C47.544 32.6352 47.9536 32.5 48.284 32.2422C48.6145 31.9844 48.8454 31.6201 48.9375 31.2113L52.5625 14.8988C52.6232 14.6298 52.6218 14.3506 52.5584 14.0823C52.4949 13.814 52.3711 13.5637 52.1963 13.3505C52.0215 13.1372 51.8004 12.9667 51.5498 12.8518C51.2992 12.7369 51.0256 12.6807 50.75 12.6875ZM45.675 29H13.8112L11.2737 16.3125H48.4844L45.675 29Z" fill="#F8F8F8"/>
</svg>
