<svg width="66" height="66" viewBox="0 0 66 66" fill="none" xmlns="http://www.w3.org/2000/svg">
<path d="M32.4677 0C14.5361 0 0 14.5399 0 32.4762C0 50.4125 14.5361 64.9524 32.4677 64.9524C50.3994 64.9524 64.9355 50.4125 64.9355 32.4762C64.9355 14.5399 50.3994 0 32.4677 0ZM24.5199 45.9369H17.9452V24.7732H24.5199V45.9369ZM21.192 22.1751C19.1154 22.1751 17.7727 20.7036 17.7727 18.8835C17.7727 17.0263 19.156 15.5987 21.2765 15.5987C23.3971 15.5987 24.6958 17.0263 24.7364 18.8835C24.7364 20.7036 23.3971 22.1751 21.192 22.1751ZM48.5325 45.9369H41.9578V34.2083C41.9578 31.4782 41.0041 29.6244 38.6265 29.6244C36.8103 29.6244 35.7314 30.8794 35.2546 32.0872C35.0787 32.5168 35.0347 33.1257 35.0347 33.7313V45.9335H28.4566V31.5222C28.4566 28.8801 28.3721 26.6711 28.2841 24.7699H33.9964L34.2974 27.7096H34.4293C35.2951 26.3294 37.4157 24.2929 40.9635 24.2929C45.2891 24.2929 48.5325 27.192 48.5325 33.4234V45.9369V45.9369Z" fill="#F8F8F8"/>
</svg>
