<svg width="38" height="38" viewBox="0 0 38 38" fill="none" xmlns="http://www.w3.org/2000/svg">
<g clip-path="url(#clip0_304_50)">
<path d="M18.5 8C13.2522 8 9 12.2351 9 17.481C9 26.5516 18.5 38.381 18.5 38.381C18.5 38.381 28 26.5497 28 17.481C28 12.237 23.7478 8 18.5 8ZM18.5 22.7269C17.1394 22.7269 15.8346 22.1864 14.8725 21.2244C13.9105 20.2623 13.37 18.9575 13.37 17.5969C13.37 16.2363 13.9105 14.9315 14.8725 13.9694C15.8346 13.0074 17.1394 12.4669 18.5 12.4669C19.8606 12.4669 21.1654 13.0074 22.1275 13.9694C23.0895 14.9315 23.63 16.2363 23.63 17.5969C23.63 18.9575 23.0895 20.2623 22.1275 21.2244C21.1654 22.1864 19.8606 22.7269 18.5 22.7269Z" fill="#F8F8F8"/>
</g>
<defs>
<clipPath id="clip0_304_50">
<rect width="38" height="38" fill="white"/>
</clipPath>
</defs>
</svg>
