<svg width="30" height="30" viewBox="0 0 30 30" fill="none" xmlns="http://www.w3.org/2000/svg">
<path d="M12.9759 6.93705L8.23969 1.47038C7.69369 0.840419 6.69269 0.843219 6.0585 1.47878L2.16372 5.38035C1.00453 6.54088 0.672727 8.26417 1.34332 9.64589C5.34957 17.9403 12.0393 24.6391 20.3286 28.6568C21.709 29.3273 23.431 28.9955 24.5902 27.835L28.5214 23.897C29.1584 23.2601 29.1598 22.2535 28.5242 21.7076L23.0362 16.9969C22.4622 16.5041 21.5704 16.5685 20.995 17.1452L19.0854 19.0575C18.9877 19.16 18.859 19.2275 18.7191 19.2498C18.5793 19.272 18.436 19.2478 18.3112 19.1807C15.1899 17.3834 12.6007 14.7909 10.8073 11.6674C10.7401 11.5424 10.7158 11.3989 10.738 11.2588C10.7603 11.1187 10.8279 10.9898 10.9305 10.8918L12.8345 8.98653C13.4113 8.40697 13.4743 7.51102 12.9759 6.93565V6.93705Z" stroke="#F8F8F8" stroke-width="2" stroke-linecap="round" stroke-linejoin="round"/>
</svg>
