<svg width="55" height="55" viewBox="0 0 55 55" fill="none" xmlns="http://www.w3.org/2000/svg">
<path d="M10.2094 4.64063C10.5321 4.26331 10.9328 3.96038 11.3837 3.75269C11.8347 3.545 12.3254 3.43747 12.8219 3.4375H42.1781C42.6746 3.43747 43.1653 3.545 43.6163 3.75269C44.0672 3.96038 44.4679 4.26331 44.7906 4.64063L53.7591 15.1044C54.5598 16.0388 55 17.2288 55 18.4594V19.3359C55.0002 21.0374 54.4688 22.6964 53.48 24.0811C52.4912 25.4658 51.0945 26.507 49.4851 27.0591C47.8757 27.6112 46.134 27.6467 44.5035 27.1606C42.8729 26.6745 41.435 25.6911 40.3906 24.3478C39.628 25.3301 38.6507 26.1249 37.5335 26.6713C36.4163 27.2177 35.1889 27.5011 33.9453 27.5C32.7016 27.5014 31.4742 27.218 30.357 26.6716C29.2398 26.1253 28.2625 25.3303 27.5 24.3478C26.7375 25.3303 25.7602 26.1253 24.643 26.6716C23.5258 27.218 22.2984 27.5014 21.0547 27.5C19.811 27.5014 18.5835 27.218 17.4663 26.6716C16.3491 26.1253 15.3718 25.3303 14.6094 24.3478C13.565 25.6911 12.1271 26.6745 10.4965 27.1606C8.86597 27.6467 7.12427 27.6112 5.51486 27.0591C3.90546 26.507 2.50877 25.4658 1.52 24.0811C0.531238 22.6964 -0.000187683 21.0374 4.97219e-08 19.3359V18.4594C4.33384e-05 17.2288 0.440195 16.0388 1.24094 15.1044L10.2128 4.63719L10.2094 4.64063ZM16.3281 19.3359C16.3281 20.5895 16.8261 21.7917 17.7125 22.6781C18.5989 23.5645 19.8011 24.0625 21.0547 24.0625C22.3082 24.0625 23.5105 23.5645 24.3969 22.6781C25.2833 21.7917 25.7813 20.5895 25.7812 19.3359C25.7812 18.8801 25.9623 18.4429 26.2847 18.1206C26.607 17.7983 27.0442 17.6172 27.5 17.6172C27.9558 17.6172 28.393 17.7983 28.7153 18.1206C29.0377 18.4429 29.2188 18.8801 29.2188 19.3359C29.2188 20.5895 29.7167 21.7917 30.6031 22.6781C31.4895 23.5645 32.6918 24.0625 33.9453 24.0625C35.1989 24.0625 36.4011 23.5645 37.2875 22.6781C38.1739 21.7917 38.6719 20.5895 38.6719 19.3359C38.6719 18.8801 38.853 18.4429 39.1753 18.1206C39.4976 17.7983 39.9348 17.6172 40.3906 17.6172C40.8465 17.6172 41.2836 17.7983 41.606 18.1206C41.9283 18.4429 42.1094 18.8801 42.1094 19.3359C42.1094 20.5895 42.6074 21.7917 43.4938 22.6781C44.3802 23.5645 45.5824 24.0625 46.8359 24.0625C48.0895 24.0625 49.2917 23.5645 50.1781 22.6781C51.0645 21.7917 51.5625 20.5895 51.5625 19.3359V18.4594C51.5625 18.0497 51.4162 17.6535 51.15 17.3422L42.1781 6.875H12.8219L3.85 17.3422C3.58376 17.6535 3.43747 18.0497 3.4375 18.4594V19.3359C3.4375 20.5895 3.93548 21.7917 4.82188 22.6781C5.70828 23.5645 6.9105 24.0625 8.16406 24.0625C9.41762 24.0625 10.6198 23.5645 11.5062 22.6781C12.3926 21.7917 12.8906 20.5895 12.8906 19.3359C12.8906 18.8801 13.0717 18.4429 13.394 18.1206C13.7164 17.7983 14.1535 17.6172 14.6094 17.6172C15.0652 17.6172 15.5024 17.7983 15.8247 18.1206C16.147 18.4429 16.3281 18.8801 16.3281 19.3359V19.3359ZM5.15625 29.2188C5.61209 29.2188 6.04926 29.3998 6.37159 29.7222C6.69392 30.0445 6.875 30.4817 6.875 30.9375V51.5625H48.125V30.9375C48.125 30.4817 48.3061 30.0445 48.6284 29.7222C48.9507 29.3998 49.3879 29.2188 49.8438 29.2188C50.2996 29.2188 50.7368 29.3998 51.0591 29.7222C51.3814 30.0445 51.5625 30.4817 51.5625 30.9375V51.5625H53.2812C53.7371 51.5625 54.1743 51.7436 54.4966 52.0659C54.8189 52.3882 55 52.8254 55 53.2812C55 53.7371 54.8189 54.1743 54.4966 54.4966C54.1743 54.8189 53.7371 55 53.2812 55H1.71875C1.26291 55 0.825738 54.8189 0.50341 54.4966C0.181082 54.1743 4.97219e-08 53.7371 4.97219e-08 53.2812C4.97219e-08 52.8254 0.181082 52.3882 0.50341 52.0659C0.825738 51.7436 1.26291 51.5625 1.71875 51.5625H3.4375V30.9375C3.4375 30.4817 3.61858 30.0445 3.94091 29.7222C4.26324 29.3998 4.70041 29.2188 5.15625 29.2188V29.2188ZM12.0312 30.9375C12.4871 30.9375 12.9243 31.1186 13.2466 31.4409C13.5689 31.7632 13.75 32.2004 13.75 32.6562V44.6875H41.25V32.6562C41.25 32.2004 41.4311 31.7632 41.7534 31.4409C42.0757 31.1186 42.5129 30.9375 42.9688 30.9375C43.4246 30.9375 43.8618 31.1186 44.1841 31.4409C44.5064 31.7632 44.6875 32.2004 44.6875 32.6562V44.6875C44.6875 45.5992 44.3253 46.4735 43.6807 47.1182C43.036 47.7628 42.1617 48.125 41.25 48.125H13.75C12.8383 48.125 11.964 47.7628 11.3193 47.1182C10.6747 46.4735 10.3125 45.5992 10.3125 44.6875V32.6562C10.3125 32.2004 10.4936 31.7632 10.8159 31.4409C11.1382 31.1186 11.5754 30.9375 12.0312 30.9375Z" fill="#F8F8F8"/>
<path d="M31.9633 37.518C31.724 36.6505 31.2067 35.8855 30.4908 35.3404C29.7748 34.7952 28.8998 34.5 28 34.5C27.1001 34.5 26.2251 34.7952 25.5092 35.3404C24.7933 35.8855 24.276 36.6505 24.0367 37.518L23.4664 39.5852C23.3641 39.9563 23.3488 40.3461 23.4218 40.7242C23.4948 41.1022 23.6542 41.4583 23.8875 41.7646C24.1207 42.0709 24.4216 42.3192 24.7666 42.4901C25.1116 42.6611 25.4914 42.75 25.8764 42.75H30.1235C30.5086 42.75 30.8884 42.6611 31.2334 42.4901C31.5784 42.3192 31.8792 42.0709 32.1125 41.7646C32.3458 41.4583 32.5051 41.1022 32.5781 40.7242C32.6512 40.3461 32.6359 39.9563 32.5335 39.5852L31.9633 37.518ZM31.3169 41.1586C31.1776 41.3431 30.9972 41.4926 30.7901 41.5952C30.5829 41.6979 30.3547 41.7509 30.1235 41.75H25.8764C25.6454 41.75 25.4175 41.6966 25.2105 41.5941C25.0035 41.4915 24.823 41.3425 24.683 41.1587C24.5431 40.975 24.4474 40.7613 24.4036 40.5345C24.3598 40.3077 24.369 40.0738 24.4304 39.8511L25.0007 37.7839C25.1818 37.1275 25.5732 36.5485 26.115 36.136C26.6568 35.7234 27.319 35.5 28 35.5C28.681 35.5 29.3431 35.7234 29.8849 36.136C30.4267 36.5485 30.8182 37.1275 30.9993 37.7839L31.5695 39.8511C31.6319 40.0737 31.6415 40.3078 31.5976 40.5347C31.5538 40.7617 31.4577 40.9754 31.3169 41.1587V41.1586ZM24.5656 35.1972C24.6526 34.6534 24.5372 34.0713 24.2406 33.5577C23.944 33.0441 23.4975 32.6531 22.9832 32.4566C22.4324 32.2462 21.8707 32.2797 21.4009 32.5509C20.4669 33.0901 20.2211 34.4192 20.8531 35.5135C21.1496 36.0272 21.5962 36.4182 22.1104 36.6147C22.3383 36.7034 22.5804 36.7497 22.8249 36.7512C23.1295 36.7523 23.429 36.6727 23.6928 36.5203C24.1623 36.2492 24.4723 35.7793 24.5656 35.1972ZM23.5781 35.0391C23.5334 35.3182 23.3965 35.5366 23.1927 35.6543C22.9889 35.772 22.7312 35.7812 22.4672 35.6805C22.1668 35.5657 21.9011 35.3289 21.719 35.0135C21.369 34.4073 21.4522 33.676 21.9009 33.4169C22.0137 33.3529 22.1414 33.3199 22.2711 33.3213C22.3928 33.3226 22.5131 33.3461 22.6264 33.3906C22.9268 33.5054 23.1924 33.7422 23.3745 34.0576C23.5566 34.3729 23.6289 34.7216 23.5781 35.0391ZM24.6739 33.1255C25.029 33.4094 25.4344 33.5572 25.8445 33.5572C25.9673 33.5571 26.0898 33.5439 26.2098 33.5177C27.2636 33.2887 27.9026 32.0977 27.6341 30.8628C27.5082 30.2832 27.202 29.7748 26.772 29.431C26.3115 29.0629 25.7661 28.9235 25.2362 29.0388C24.1824 29.2678 23.5434 30.4588 23.8118 31.6937C23.9378 32.2733 24.2439 32.7817 24.6739 33.1255V33.1255ZM25.4485 30.016C25.4971 30.0055 25.5467 30.0002 25.5964 30.0003C25.7823 30.0003 25.9735 30.0731 26.1476 30.2122C26.3987 30.413 26.5796 30.7196 26.6569 31.0754C26.8057 31.7596 26.5036 32.4307 25.9974 32.5407C25.7673 32.5907 25.5191 32.5211 25.2984 32.3446C25.0472 32.1438 24.8663 31.8373 24.789 31.4815C24.6402 30.7971 24.9423 30.126 25.4485 30.016ZM34.5991 32.5509C34.1294 32.2797 33.5674 32.2462 33.0168 32.4566C32.5025 32.6531 32.0559 33.0441 31.7594 33.5577C31.4629 34.0713 31.3475 34.6536 31.4344 35.1972C31.5276 35.7793 31.8375 36.2492 32.3073 36.5203C32.571 36.6727 32.8705 36.7524 33.1751 36.7512C33.4196 36.7497 33.6618 36.7034 33.8896 36.6147C34.4039 36.4182 34.8504 36.0272 35.1469 35.5135C35.7788 34.4192 35.533 33.0901 34.5991 32.5509ZM34.2809 35.0135C34.0989 35.3289 33.8332 35.5657 33.5328 35.6805C33.2689 35.7813 33.0112 35.7721 32.8073 35.6543C32.6035 35.5366 32.4667 35.3182 32.4219 35.0391C32.3711 34.7216 32.4434 34.3731 32.6254 34.0579C32.8075 33.7427 33.0732 33.5057 33.3736 33.3909C33.4868 33.3463 33.6072 33.3228 33.7289 33.3215C33.8585 33.3201 33.9863 33.353 34.0991 33.4171C34.5478 33.676 34.631 34.4071 34.2809 35.0135V35.0135ZM29.7902 33.5177C29.9102 33.5439 30.0327 33.5571 30.1555 33.5572C30.5655 33.5572 30.9711 33.4094 31.326 33.1255C31.756 32.7818 32.0622 32.2733 32.1882 31.6937C32.4566 30.4589 31.8176 29.2679 30.7638 29.0388C30.2339 28.9236 29.6884 29.0629 29.2279 29.431C28.7979 29.7748 28.4918 30.2833 28.3658 30.8628C28.0974 32.0977 28.7364 33.2887 29.7902 33.5177V33.5177ZM29.343 31.0752C29.4203 30.7194 29.6012 30.4127 29.8524 30.2121C30.0265 30.0729 30.2177 30.0002 30.4035 30.0002C30.4532 30.0001 30.5028 30.0053 30.5514 30.0158C31.0577 30.1259 31.3597 30.7971 31.211 31.4811C31.1336 31.837 30.9527 32.1436 30.7016 32.3443C30.481 32.5207 30.2329 32.5904 30.0027 32.5404C29.4963 32.4305 29.1943 31.7594 29.343 31.0752Z" fill="#F8F8F8"/>
</svg>
