<svg width="66" height="66" viewBox="0 0 66 66" fill="none" xmlns="http://www.w3.org/2000/svg">
<path d="M33.0001 1.31995C15.5035 1.31995 1.32007 15.5033 1.32007 32.9999C1.32007 50.4966 15.5035 64.68 33.0001 64.68C50.4967 64.68 64.6801 50.4966 64.6801 32.9999C64.6801 15.5033 50.4967 1.31995 33.0001 1.31995ZM45.8866 27.2711C45.8998 27.5417 45.9031 27.8124 45.9031 28.0764C45.9031 36.3264 39.6298 45.8336 28.1524 45.8336C24.7609 45.8393 21.4401 44.8653 18.589 43.0286C19.0741 43.088 19.5724 43.1112 20.0773 43.1112C23.0011 43.1112 25.6906 42.1179 27.8257 40.4415C26.5245 40.4159 25.2638 39.985 24.2191 39.209C23.1745 38.4329 22.398 37.3502 21.9979 36.1118C22.9323 36.2895 23.8949 36.2523 24.8128 36.0029C23.4005 35.7174 22.1305 34.9522 21.2181 33.837C20.3057 32.7219 19.807 31.3256 19.8067 29.8847V29.8088C20.6482 30.2741 21.6118 30.558 22.6348 30.591C21.3108 29.7096 20.3736 28.3558 20.0147 26.8063C19.6559 25.2568 19.9025 23.6288 20.7043 22.2551C22.2716 24.1823 24.2262 25.7589 26.4415 26.8828C28.6569 28.0066 31.0835 28.6527 33.5644 28.7792C33.249 27.4405 33.3847 26.035 33.9505 24.7813C34.5163 23.5276 35.4804 22.496 36.693 21.8468C37.9056 21.1976 39.2987 20.9672 40.6557 21.1915C42.0128 21.4157 43.2577 22.082 44.197 23.0867C45.5934 22.8105 46.9326 22.2982 48.157 21.572C47.6915 23.0179 46.7171 24.2456 45.4147 25.0271C46.6517 24.8782 47.8595 24.5456 48.9985 24.0404C48.1619 25.2941 47.108 26.3882 45.8866 27.2711V27.2711Z" fill="#F8F8F8"/>
</svg>
